<?xml version="1.0" standalone="no"?>
<!DOCTYPE svg PUBLIC "-//W3C//DTD SVG 20010904//EN"
 "http://www.w3.org/TR/2001/REC-SVG-20010904/DTD/svg10.dtd">
<svg version="1.0" xmlns="http://www.w3.org/2000/svg"
 width="1620.000000pt" height="1620.000000pt" viewBox="0 0 1620.000000 1620.000000"
 preserveAspectRatio="xMidYMid meet">

<g transform="translate(0.000000,1620.000000) scale(0.100000,-0.100000)"
fill="#000000" stroke="none">
<path d="M2913 13510 c-61 -37 -82 -124 -44 -186 11 -18 47 -49 81 -70 34 -22
158 -105 275 -186 118 -80 274 -183 347 -229 205 -127 384 -245 488 -322 244
-181 520 -418 520 -446 0 -9 5 -22 12 -29 9 -9 9 -12 0 -12 -17 0 -11 -32 8
-46 26 -19 49 -24 56 -12 5 7 2 8 -6 3 -9 -5 -11 -4 -6 4 4 6 12 9 17 5 6 -3
8 -8 5 -11 -2 -3 7 -16 22 -30 15 -13 22 -22 15 -19 -20 11 -23 -9 -2 -22 19
-12 25 -5 19 23 -1 6 2 6 6 2 5 -4 9 -18 9 -29 0 -16 9 -24 31 -30 18 -4 34
-16 37 -25 4 -10 14 -29 23 -43 9 -14 10 -17 2 -8 -8 10 -19 14 -23 10 -5 -4
-5 -1 0 7 6 10 4 12 -4 6 -9 -5 -3 -17 21 -43 18 -19 27 -32 20 -27 -11 6 -11
3 0 -14 12 -20 14 -20 26 -4 10 14 13 14 12 3 -5 -38 1 -69 13 -66 6 1 9 1 4
-1 -4 -3 -5 -9 -2 -14 4 -5 -1 -6 -9 -3 -26 10 -18 -4 12 -21 20 -12 22 -14 5
-10 -18 5 -20 2 -16 -15 4 -14 9 -17 17 -11 8 6 11 -1 12 -27 1 -21 -2 -39 -7
-42 -4 -3 2 -23 12 -45 11 -22 21 -52 22 -67 1 -16 6 -28 10 -28 4 0 7 -6 6
-12 -4 -31 2 -49 13 -42 7 4 8 3 4 -5 -4 -6 -12 -9 -17 -6 -5 4 -9 1 -9 -5 0
-6 -5 -8 -10 -5 -6 4 -9 -3 -6 -17 2 -13 -2 -38 -10 -55 -7 -18 -10 -33 -7
-33 4 0 -2 -7 -13 -15 -16 -13 -17 -14 -1 -9 16 6 16 4 6 -19 -7 -15 -16 -24
-20 -21 -5 3 -9 0 -9 -5 0 -6 4 -11 9 -11 13 0 1 -73 -13 -83 -6 -5 -1 -7 12
-4 23 5 23 5 7 -13 -13 -14 -13 -19 -3 -23 10 -4 10 -6 -1 -6 -11 -1 -11 -4 0
-18 8 -10 9 -14 2 -10 -11 7 -11 -51 1 -125 2 -16 0 -28 -5 -28 -5 0 -9 11 -9
24 0 14 -5 28 -12 32 -6 4 -8 3 -4 -4 3 -5 0 -13 -6 -15 -9 -4 -9 -6 -2 -6 8
-1 10 -14 7 -36 -3 -20 -1 -41 4 -48 4 -7 8 -19 7 -27 -1 -8 -2 -22 -3 -30 -1
-9 -4 -11 -9 -5 -9 12 -36 19 -28 7 3 -5 8 -24 11 -43 9 -46 13 -64 15 -64 1
0 3 -16 5 -35 8 -83 18 -145 24 -150 3 -3 7 -18 7 -35 1 -16 5 -48 9 -70 4
-22 7 -52 7 -67 0 -16 3 -28 7 -28 3 0 5 -21 5 -47 -2 -64 -3 -65 -12 -59 -5
3 -9 -1 -9 -9 0 -18 9 -19 26 -2 11 10 11 8 2 -11 -7 -12 -17 -20 -23 -16 -7
5 -8 2 -3 -7 5 -7 10 -29 12 -48 2 -19 9 -42 16 -50 9 -12 9 -13 0 -7 -8 4
-13 1 -13 -8 0 -9 5 -16 11 -16 5 0 7 -4 4 -10 -3 -5 -3 -16 2 -22 13 -21 13
-42 0 -50 -9 -6 -9 -8 1 -8 7 0 10 -4 7 -10 -3 -5 1 -10 10 -10 9 0 13 -5 10
-10 -4 -6 -12 -7 -18 -4 -8 5 -8 3 1 -7 6 -7 12 -24 13 -39 0 -22 1 -23 8 -5
5 11 7 23 4 28 -2 4 0 7 5 7 6 0 8 8 5 19 -3 10 0 21 5 25 10 6 9 -27 -1 -71
-3 -13 -2 -23 4 -23 5 0 9 7 9 16 0 8 5 12 11 9 6 -4 8 -10 5 -13 -3 -3 0 -12
6 -21 7 -9 8 -13 4 -9 -5 4 -15 0 -22 -10 -9 -13 -10 -20 -1 -31 7 -8 11 -16
10 -18 -2 -1 -1 -3 2 -3 4 0 6 6 4 13 -6 19 -6 37 1 37 9 0 21 -34 24 -70 1
-14 6 -32 11 -39 5 -9 3 -12 -6 -9 -8 3 -13 11 -12 17 2 6 -2 11 -7 11 -13 0
-13 -17 1 -25 6 -4 8 -13 5 -21 -3 -8 -1 -14 3 -14 5 0 11 6 14 13 3 9 8 9 18
-2 8 -8 9 -11 2 -7 -15 8 -22 -13 -12 -45 4 -17 3 -31 -4 -39 -9 -8 -7 -9 7
-4 16 6 17 5 7 -14 -10 -19 -9 -21 5 -15 14 5 16 2 12 -15 -3 -12 -3 -20 1
-19 3 1 6 -2 6 -8 0 -5 -4 -9 -9 -7 -5 2 -4 -3 2 -11 7 -8 9 -17 5 -20 -3 -4
-1 -7 5 -7 5 0 13 6 16 13 3 6 4 0 1 -14 -4 -24 -2 -26 23 -22 26 3 26 3 4 -7
-13 -5 -20 -15 -17 -20 5 -8 11 -8 20 0 10 8 15 8 21 -2 4 -7 4 -10 -1 -6 -4
4 -14 3 -21 -3 -10 -8 -10 -16 -2 -35 12 -25 34 -35 25 -11 -3 8 1 14 8 14 7
0 10 -8 7 -19 -2 -10 -12 -18 -21 -18 -12 0 -13 -2 -3 -9 8 -4 12 -10 11 -12
-7 -10 19 -41 37 -43 14 -2 19 -11 19 -35 0 -20 4 -30 11 -27 7 3 11 -3 9 -12
-1 -9 2 -23 7 -29 6 -7 8 -20 4 -28 -3 -9 -2 -13 4 -10 12 7 24 -40 14 -56 -4
-7 -3 -10 2 -6 5 3 18 -22 28 -56 11 -34 25 -66 31 -72 7 -5 11 -18 9 -28 -1
-9 2 -15 7 -11 5 3 9 0 9 -5 0 -21 2 -26 12 -38 8 -9 7 -13 -3 -13 -10 -1 -9
-4 3 -11 12 -7 16 -20 14 -47 -2 -20 1 -43 6 -50 6 -7 8 -15 5 -18 -3 -4 0
-13 8 -20 8 -8 12 -23 10 -34 -2 -11 0 -18 5 -15 11 7 24 -40 15 -54 -3 -6 -1
-11 6 -11 7 0 9 -3 6 -7 -4 -3 -2 -12 4 -20 6 -7 8 -13 4 -13 -4 0 -1 -8 6
-17 10 -11 10 -14 2 -9 -7 4 -13 2 -13 -3 0 -6 8 -11 18 -12 11 0 12 -2 4 -6
-10 -4 -9 -9 5 -20 10 -8 11 -11 3 -7 -13 7 -13 5 -1 -9 7 -9 10 -17 6 -17 -4
0 -2 -7 5 -15 7 -8 9 -15 6 -15 -4 0 -1 -10 6 -22 7 -13 13 -25 13 -28 0 -3 6
-15 13 -27 7 -13 10 -23 6 -23 -3 0 -2 -6 3 -12 6 -7 13 -26 17 -41 4 -15 10
-26 14 -23 4 2 9 -6 10 -19 1 -12 6 -33 11 -46 5 -13 9 -28 9 -33 0 -5 6 -12
13 -17 11 -6 10 -9 -4 -14 -15 -6 -15 -9 -1 -22 8 -9 13 -22 10 -29 -3 -8 -1
-14 5 -14 6 0 9 -7 5 -15 -3 -8 -2 -15 3 -15 5 0 7 -13 6 -30 -2 -18 1 -27 8
-23 6 4 8 -2 5 -15 -4 -12 0 -23 7 -26 8 -3 11 -13 8 -24 -2 -11 0 -23 6 -26
6 -4 11 -16 11 -27 0 -11 7 -22 15 -25 8 -4 13 -10 10 -14 -6 -10 26 -90 35
-85 4 3 7 -3 7 -13 0 -33 3 -43 11 -38 4 2 8 -3 9 -12 0 -9 15 -54 32 -99 24
-66 28 -83 16 -83 -20 0 -20 -1 17 -78 18 -37 33 -69 33 -72 7 -23 22 -48 41
-66 13 -12 20 -25 17 -28 -4 -3 -1 -6 5 -6 7 0 10 10 8 23 -3 12 -5 24 -5 27
-1 3 -6 -2 -12 -10 -8 -12 -9 -8 -5 15 3 17 3 24 0 18 -10 -22 -21 -14 -19 12
2 14 0 25 -5 25 -4 0 -10 10 -13 23 l-6 22 19 -24 c11 -12 17 -27 14 -32 -3
-5 0 -9 6 -9 6 0 14 -8 17 -17 9 -24 29 -43 44 -43 7 0 4 -7 -7 -15 -14 -11
-15 -14 -2 -9 18 6 19 -10 3 -36 -8 -13 -7 -13 8 -1 11 8 17 9 17 3 0 -6 6 -9
14 -6 7 3 21 -6 30 -20 9 -15 14 -26 11 -26 -3 0 -1 -6 5 -12 40 -48 80 -110
86 -132 3 -14 11 -26 17 -26 6 0 8 -3 5 -6 -6 -5 49 -105 72 -131 6 -7 8 -13
5 -13 -4 0 2 -12 12 -27 10 -16 30 -53 43 -83 13 -30 29 -62 35 -70 14 -20 48
-91 51 -109 1 -7 8 -19 15 -25 9 -8 10 -8 5 2 -10 16 -1 15 13 -2 9 -11 9 -16
0 -22 -8 -5 -9 -3 -4 6 5 9 4 11 -3 6 -17 -11 -15 -15 13 -26 14 -5 24 -13 23
-17 -1 -5 13 -24 32 -43 54 -56 71 -80 64 -92 -4 -6 -3 -8 2 -5 13 7 26 -2 41
-30 8 -15 9 -24 2 -28 -10 -7 95 -115 112 -115 6 0 7 -5 3 -12 -5 -7 -3 -8 5
-4 15 10 53 -23 44 -38 -3 -6 -3 -8 2 -4 4 4 14 0 22 -10 8 -9 12 -11 8 -4
-12 23 6 12 43 -25 20 -21 35 -41 34 -45 -1 -5 4 -8 11 -8 8 0 24 -11 37 -25
12 -13 27 -22 33 -18 6 3 7 1 3 -6 -4 -6 0 -14 8 -17 9 -3 14 -9 12 -13 -2 -3
7 -20 21 -36 14 -17 22 -23 17 -15 -4 8 4 4 19 -10 15 -14 27 -30 27 -36 0 -7
7 -14 15 -18 8 -3 15 -13 15 -21 0 -9 5 -13 10 -10 6 3 10 -1 10 -10 0 -8 11
-21 25 -27 14 -6 25 -16 25 -22 1 -16 96 -107 104 -99 3 3 6 -1 6 -9 0 -8 14
-32 30 -53 17 -21 30 -44 30 -52 0 -7 20 -56 44 -107 24 -52 42 -97 40 -99 -3
-2 7 -2 21 0 26 6 33 19 13 25 -7 3 -4 7 7 12 11 4 16 4 12 0 -4 -4 5 -23 20
-42 15 -20 20 -32 12 -28 -8 5 0 -3 16 -18 17 -14 36 -25 43 -26 6 0 12 -4 12
-10 0 -5 19 -29 42 -52 23 -24 36 -35 29 -25 -9 10 -9 17 -3 17 6 0 19 -13 28
-29 10 -17 20 -28 23 -26 3 2 20 -8 36 -22 17 -14 23 -22 15 -17 -8 4 10 -16
40 -46 30 -30 60 -53 66 -52 7 1 14 -4 18 -13 3 -8 12 -15 20 -15 9 0 18 -11
22 -25 3 -14 10 -22 16 -19 5 3 4 11 -3 20 -9 11 -9 14 0 14 7 0 9 5 5 12 -5
7 -3 8 5 4 7 -5 10 -11 7 -14 -3 -3 6 -13 22 -22 15 -10 30 -13 33 -8 4 6 14
6 25 -1 11 -6 31 -15 47 -21 15 -5 26 -13 25 -17 -1 -5 17 -28 40 -52 23 -24
42 -51 42 -59 0 -9 6 -12 16 -8 8 3 13 2 10 -3 -5 -7 45 -83 84 -128 5 -7 10
-15 10 -18 0 -4 12 -23 28 -43 15 -20 20 -32 12 -27 -12 7 -12 4 1 -11 9 -10
20 -29 23 -41 4 -11 13 -24 21 -27 8 -3 15 -12 15 -20 0 -9 12 -22 28 -30 15
-9 20 -16 12 -16 -12 -1 -12 -3 2 -14 10 -7 15 -15 13 -18 -3 -3 3 -11 12 -19
16 -13 17 -12 5 3 -12 15 -11 17 7 15 11 0 17 -5 14 -10 -6 -10 66 -98 126
-153 104 -94 221 -195 221 -189 0 3 -17 23 -39 45 -21 22 -36 40 -33 40 3 0
-3 10 -14 22 l-19 21 25 -16 c14 -9 32 -25 40 -37 8 -11 24 -20 35 -21 11 0
15 -3 8 -6 -8 -3 -5 -12 10 -27 12 -13 26 -21 31 -18 5 3 7 -5 4 -16 -4 -12
-3 -22 1 -22 12 0 91 -78 91 -89 0 -6 8 -11 18 -11 14 0 15 2 2 10 -13 8 -13
10 2 10 9 0 18 -3 20 -8 5 -13 85 -72 90 -67 3 3 21 -10 42 -29 24 -23 42 -33
53 -29 11 4 14 3 9 -5 -4 -7 -1 -12 8 -12 9 0 16 -3 16 -7 0 -5 40 -33 89 -63
49 -30 97 -66 107 -81 10 -15 21 -26 25 -23 4 2 12 -9 18 -24 7 -15 42 -49 78
-77 37 -27 77 -60 89 -71 13 -12 25 -19 28 -16 6 5 10 -15 7 -32 -1 -5 4 -4
11 2 10 8 25 4 61 -19 26 -16 53 -29 61 -29 8 0 21 -9 29 -20 7 -11 34 -34 58
-52 24 -17 46 -34 49 -37 14 -18 65 -51 78 -51 12 0 12 3 1 18 -13 15 -12 16
3 4 9 -8 15 -19 12 -26 -3 -7 3 -19 13 -27 16 -13 17 -12 4 4 -11 14 -11 17 0
17 7 0 41 -29 75 -65 34 -36 60 -65 57 -65 -2 0 9 -13 24 -29 60 -61 98 -106
95 -110 -4 -4 19 -21 30 -21 4 0 5 7 2 15 -9 22 6 18 35 -7 l25 -23 -17 28
c-24 37 -16 34 32 -13 22 -22 37 -40 33 -40 -3 0 15 -20 41 -45 27 -25 45 -45
41 -45 -5 0 8 -16 27 -37 31 -33 25 -38 -11 -7 -8 7 -22 14 -30 16 -8 2 -18 7
-22 13 -4 5 -6 0 -5 -12 0 -12 5 -19 9 -17 4 3 8 0 8 -6 0 -6 4 -9 9 -6 11 7
67 -44 63 -57 -2 -5 4 -7 12 -4 9 4 18 1 22 -5 5 -7 2 -8 -6 -3 -8 5 -11 3 -8
-6 3 -8 14 -14 26 -13 11 0 18 -5 15 -11 -2 -7 8 -20 23 -30 18 -11 24 -13 19
-4 -3 8 2 4 13 -8 11 -13 24 -23 29 -23 5 0 18 -8 29 -17 28 -26 164 -114 164
-107 0 4 8 0 17 -7 11 -10 14 -10 9 -1 -4 7 -2 12 5 12 23 0 136 -60 159 -85
14 -15 40 -28 62 -31 22 -4 38 -12 38 -20 0 -8 6 -11 17 -7 11 4 14 3 9 -5 -6
-10 50 -49 65 -45 3 1 17 -16 30 -37 13 -22 27 -40 32 -40 4 0 7 -5 7 -11 0
-38 80 -165 95 -151 5 4 6 -1 2 -10 -5 -15 16 -34 35 -30 5 1 8 -5 8 -13 0 -8
8 -15 18 -14 10 0 12 3 5 6 -7 2 -13 11 -13 20 0 20 23 11 36 -15 7 -15 14
-18 21 -11 8 8 15 4 25 -10 8 -12 18 -18 23 -13 5 4 5 1 1 -6 -5 -8 1 -20 14
-32 12 -10 21 -21 22 -24 0 -20 12 -46 20 -46 5 0 6 -4 3 -10 -3 -5 -1 -10 4
-10 6 0 11 -6 11 -14 0 -8 7 -16 15 -20 8 -3 14 -11 13 -18 -2 -8 5 -12 15
-10 10 2 21 -6 26 -20 5 -13 22 -35 37 -50 16 -15 40 -41 53 -57 14 -17 33
-33 43 -37 10 -3 18 -10 18 -15 0 -6 6 -16 13 -23 6 -7 26 -30 42 -51 48 -60
80 -87 91 -77 4 4 4 -1 1 -10 -4 -13 -2 -15 10 -11 11 4 14 2 9 -5 -4 -7 -2
-12 3 -12 10 0 15 14 12 32 0 4 6 5 14 2 8 -4 15 -11 15 -17 0 -6 3 -8 6 -4 3
3 18 1 33 -5 14 -5 37 -12 50 -14 13 -3 31 -13 40 -22 9 -10 12 -12 7 -5 -15
22 6 14 29 -11 13 -14 20 -28 17 -31 -4 -3 1 -3 10 0 9 4 15 12 12 20 -3 7 2
15 10 18 10 4 16 1 16 -7 0 -8 7 -17 16 -20 10 -4 13 -2 8 7 -4 6 4 1 17 -13
13 -13 23 -28 21 -33 -1 -5 2 -6 7 -2 6 3 19 -3 30 -14 13 -13 21 -16 25 -8 2
7 5 5 5 -4 1 -9 13 -20 27 -23 20 -5 23 -10 14 -21 -7 -8 -7 -15 -1 -19 5 -4
13 3 16 15 7 21 8 21 29 -6 17 -22 25 -25 31 -15 5 9 4 11 -3 6 -7 -4 -12 -2
-12 3 0 6 7 11 15 11 8 0 15 -5 15 -10 0 -15 42 -70 52 -70 5 0 6 4 3 10 -3 5
-8 19 -10 31 -3 17 -1 19 10 9 9 -7 15 -8 20 0 3 5 1 10 -4 10 -6 0 -11 4 -11
10 0 5 7 7 15 4 13 -5 13 -1 -1 37 -8 24 -13 52 -10 62 2 9 -1 17 -7 17 -6 0
-8 3 -4 6 5 6 -7 46 -34 109 -7 17 -13 37 -14 45 0 8 -11 35 -23 59 -22 45
-30 79 -12 51 5 -8 10 -10 10 -4 0 6 -3 14 -7 18 -5 4 -8 15 -8 24 -1 10 -6
27 -13 40 -7 12 -10 27 -7 32 3 6 1 10 -4 10 -6 0 -10 3 -9 8 2 11 -14 66 -22
72 -10 8 -37 73 -45 108 -4 18 -11 30 -16 27 -5 -4 -6 0 -3 8 3 8 -2 20 -10
27 -9 7 -13 16 -10 21 3 5 0 9 -6 9 -6 0 -8 5 -5 10 3 6 -1 13 -9 16 -9 3 -16
10 -16 16 0 5 6 6 13 2 9 -6 9 -4 1 7 -6 8 -11 24 -12 37 0 13 -13 40 -28 60
-15 19 -21 32 -14 27 8 -5 3 7 -10 25 -14 19 -25 41 -26 48 -2 8 -10 22 -18
31 -9 10 -13 21 -9 24 3 4 -1 15 -10 24 -8 10 -16 23 -16 28 -2 21 -13 45 -20
45 -4 0 -8 6 -8 13 0 6 -16 44 -34 82 -37 79 -34 72 -44 103 -4 12 -11 22 -16
22 -5 0 -8 3 -8 8 1 4 0 10 -1 15 -1 4 -3 10 -5 15 -1 4 -9 24 -19 45 -9 21
-14 43 -10 50 4 7 3 9 -1 4 -7 -5 -37 45 -36 60 0 2 -7 20 -16 40 -20 49 -34
87 -35 93 0 8 -29 83 -37 100 -4 8 -7 23 -5 33 1 9 -2 17 -7 17 -5 0 -8 3 -8
8 1 4 0 9 -1 12 -2 6 -4 12 -28 105 -22 81 -78 251 -92 280 -12 24 -41 123
-43 148 -1 9 -4 17 -8 17 -4 0 -9 10 -12 23 -6 21 -5 21 8 3 13 -17 14 -16 10
10 -2 16 -4 29 -5 29 -1 0 -3 9 -5 20 -1 11 -7 48 -13 82 -6 33 -8 71 -5 84 4
15 3 20 -5 15 -7 -4 -12 -2 -12 3 0 6 4 11 10 11 6 0 6 9 -1 26 -5 15 -7 29
-4 32 2 3 1 10 -4 16 -5 6 -21 52 -36 101 -15 50 -31 95 -35 100 -5 6 -8 12
-8 15 2 22 -55 181 -83 234 -8 14 -8 16 3 10 7 -4 6 1 -3 12 -9 10 -20 30 -24
44 -4 14 -13 31 -19 39 -9 12 -8 13 4 6 13 -8 13 -6 1 8 -7 9 -18 14 -25 10
-6 -4 -5 0 2 9 9 11 10 18 2 23 -5 3 -10 15 -10 25 0 10 -8 21 -17 23 -16 4
-16 5 1 6 15 1 16 4 6 16 -7 8 -17 12 -23 8 -5 -3 -7 -1 -3 5 3 5 0 13 -6 15
-10 4 -9 8 2 16 13 9 13 11 -2 11 -10 0 -18 6 -19 13 0 6 -3 21 -6 32 -2 11
-5 28 -6 37 -1 9 -4 15 -8 12 -4 -2 -10 2 -13 8 -3 7 -4 2 -2 -12 2 -14 1 -19
-1 -13 -3 7 -8 13 -13 13 -5 0 -6 8 -3 17 5 13 2 15 -12 10 -15 -6 -16 -5 -5
8 7 8 9 15 4 16 -5 0 0 4 10 8 19 7 19 8 -2 13 -12 3 -20 2 -19 -4 1 -6 -4
-13 -11 -15 -7 -3 -12 -1 -11 4 3 13 -22 73 -31 73 -4 0 -8 6 -7 13 1 32 -4
48 -13 42 -5 -3 -10 -1 -10 6 0 6 -7 17 -15 23 -8 6 -16 21 -18 34 -2 12 -12
29 -23 38 -10 8 -12 12 -4 8 10 -5 8 1 -5 16 -12 14 -14 20 -5 15 12 -7 13 -6
3 7 -7 8 -10 18 -6 22 4 4 -1 4 -11 0 -13 -5 -17 -4 -12 4 4 6 -4 18 -19 28
-13 9 -22 20 -19 25 3 5 -2 9 -11 9 -9 0 -13 4 -10 10 3 5 0 8 -7 5 -8 -3 -20
12 -31 40 -11 25 -23 45 -29 45 -5 0 -7 4 -4 9 3 5 -1 14 -9 21 -8 7 -12 16
-9 21 3 5 1 9 -4 9 -5 0 -15 15 -23 33 -7 17 -21 39 -31 48 -10 9 -15 19 -11
22 3 4 1 12 -5 19 -6 7 -10 17 -10 21 0 5 -4 12 -8 15 -4 4 -4 2 0 -5 11 -20
-12 -24 -34 -6 -20 17 -82 137 -78 151 5 16 -24 52 -35 46 -9 -5 -9 -4 -1 5
15 17 -4 71 -26 72 -10 0 -11 2 -3 6 10 3 9 8 -2 19 -8 8 -20 34 -26 57 -6 23
-15 51 -21 62 -5 12 -10 27 -12 35 -2 8 -6 22 -9 30 -3 8 -15 44 -26 80 -10
36 -26 78 -35 94 -8 16 -13 33 -10 38 3 4 1 8 -5 8 -5 0 -9 9 -8 19 0 11 5 17
9 15 5 -3 6 -10 3 -15 -4 -5 -1 -9 4 -9 6 0 9 10 7 23 -2 12 -9 21 -15 20 -6
-2 -8 4 -4 13 3 9 1 19 -5 23 -6 4 -13 16 -15 26 -7 35 -26 75 -36 75 -6 0 -8
7 -5 15 4 8 1 15 -6 15 -6 0 -8 5 -5 10 3 6 1 10 -4 10 -6 0 -11 8 -11 19 0
10 -7 24 -15 31 -8 7 -15 20 -15 30 0 10 -6 23 -14 30 -8 6 -13 17 -10 25 3 7
-5 23 -18 35 -13 13 -17 19 -9 15 10 -6 12 -4 5 6 -5 8 -9 16 -10 19 -11 38
-18 50 -27 50 -6 0 -7 3 -4 7 4 3 3 11 -2 17 -4 6 -11 20 -15 30 -5 16 -4 17
9 6 8 -7 12 -16 9 -21 -3 -5 -1 -9 3 -9 5 0 17 -15 28 -33 10 -17 21 -34 25
-37 4 -3 12 -14 18 -25 10 -17 11 -15 5 14 -5 29 -4 33 10 28 10 -4 17 -1 17
6 0 7 -9 13 -20 13 -11 0 -20 -5 -20 -11 0 -5 -4 -3 -9 5 -12 18 -2 35 12 21
6 -6 15 -11 19 -11 11 0 6 23 -7 32 -6 4 -2 8 9 8 11 0 16 -5 13 -13 -3 -8 1
-14 8 -14 7 0 12 5 11 11 -3 22 -17 35 -32 29 -10 -4 -17 2 -21 16 -3 11 -10
21 -16 21 -6 0 -7 3 -4 6 9 9 38 -16 31 -27 -3 -5 -1 -9 4 -9 19 0 21 14 7 37
-15 23 -15 23 4 11 11 -7 22 -19 25 -28 2 -8 4 -4 5 9 0 13 -7 30 -16 38 -10
8 -12 12 -5 8 7 -4 12 1 13 12 0 14 3 12 10 -6 5 -13 17 -31 27 -40 9 -9 28
-36 41 -61 14 -25 36 -56 49 -70 14 -14 21 -18 16 -10 -9 15 -10 20 -13 41 0
5 -5 8 -9 5 -4 -2 -8 4 -8 15 0 24 5 24 23 2 12 -16 12 -15 2 8 -6 15 -23 32
-36 38 -26 12 -25 23 3 27 10 2 14 -3 10 -11 -3 -8 0 -12 8 -9 7 3 19 -8 27
-23 8 -15 22 -34 32 -41 9 -7 14 -18 11 -24 -4 -7 -2 -8 5 -4 8 6 9 12 2 20
-17 20 0 27 18 8 9 -10 13 -13 9 -7 -4 7 -5 15 -1 18 6 6 -3 8 -24 6 -13 -1
-21 36 -10 49 7 9 7 16 -1 24 -17 17 -15 31 4 24 8 -3 12 -2 9 4 -3 6 2 10 12
10 11 0 14 3 7 8 -9 6 -25 35 -28 52 -1 3 -5 11 -9 18 -5 6 -6 16 -2 21 3 5 1
12 -5 16 -6 4 -8 10 -5 15 7 11 -5 41 -15 35 -4 -3 -11 2 -14 11 -6 15 -4 15
18 0 33 -21 39 -20 26 4 -6 11 -15 18 -19 16 -5 -3 -7 5 -6 19 2 13 -3 29 -11
36 -8 6 -14 17 -14 23 0 7 -14 38 -31 70 -31 57 -31 58 -8 47 21 -10 20 -9 -4
9 -15 12 -25 25 -22 30 3 4 -2 13 -10 20 -8 7 -20 30 -25 51 -6 22 -15 39 -20
39 -6 0 -10 5 -10 10 0 6 -24 44 -52 86 -29 41 -57 82 -63 92 -17 28 -32 41
-39 34 -4 -3 -4 1 -1 10 4 9 0 18 -9 21 -9 4 -16 13 -16 21 0 8 -26 50 -58 93
-32 43 -59 83 -61 88 -1 6 -12 23 -23 38 -12 16 -23 35 -24 44 -2 9 -9 20 -16
24 -7 5 -10 9 -5 9 4 0 1 10 -8 23 -8 13 -12 27 -8 31 4 4 1 5 -7 2 -10 -4
-21 7 -35 35 -10 23 -25 44 -32 46 -7 3 -13 12 -13 20 0 8 -5 11 -10 8 -10 -6
-40 17 -40 32 0 4 -16 26 -36 48 -107 119 -129 146 -129 157 0 7 -10 17 -21
23 -34 17 -54 36 -48 46 3 5 10 6 16 3 7 -4 8 -2 4 4 -4 7 -13 12 -21 12 -14
0 -31 37 -22 47 9 8 -98 103 -111 98 -7 -3 -11 -1 -8 4 3 5 -1 14 -9 21 -9 7
-13 23 -11 36 3 17 0 24 -11 24 -13 0 -13 -2 -2 -17 13 -15 12 -15 -8 -2 -13
8 -18 16 -12 20 7 4 6 17 -5 38 -10 18 -12 31 -6 31 6 0 13 -7 16 -15 4 -8 12
-15 20 -15 7 0 18 -9 24 -20 6 -11 15 -18 21 -15 19 12 -13 53 -95 123 -16 13
-25 27 -21 30 4 4 15 -3 25 -15 10 -13 24 -23 32 -23 8 0 9 3 2 8 -6 4 -14 15
-17 26 -6 16 -4 18 23 13 l29 -6 -20 20 c-11 11 -17 23 -15 28 3 4 -10 24 -28
44 -19 21 -32 37 -29 37 2 0 -5 10 -16 22 -11 11 -18 26 -14 31 4 6 10 5 17
-4 6 -8 20 -16 30 -17 18 -3 18 -2 5 14 -8 11 -9 15 -1 10 6 -4 12 -2 12 3 0
6 -6 11 -12 12 -7 0 -5 4 6 8 16 6 15 10 -16 37 -38 34 -61 63 -37 49 11 -7
12 -6 3 6 -6 8 -11 24 -12 35 0 19 -26 52 -114 145 -14 16 -24 29 -21 29 2 0
-14 19 -36 43 -23 23 -43 50 -47 60 -3 9 -10 17 -15 17 -5 0 -9 6 -9 13 0 6
-12 23 -25 36 -14 13 -25 29 -25 37 0 8 -4 14 -10 14 -5 0 -10 7 -10 16 0 10
-5 14 -16 10 -8 -3 -12 -2 -9 4 3 6 1 10 -4 10 -6 0 -11 4 -11 9 0 5 -12 22
-28 38 -37 38 -87 103 -87 113 0 5 -11 23 -25 42 -14 18 -28 40 -32 48 -5 12
-7 12 -7 -2 -1 -10 -6 -18 -12 -18 -5 0 -7 4 -4 10 3 5 -5 15 -19 22 -29 13
-36 30 -8 22 9 -3 6 2 -8 10 -14 8 -20 16 -15 16 6 0 -1 9 -14 19 -14 10 -32
17 -40 14 -14 -4 -14 -3 0 9 14 12 14 15 -3 33 -10 10 -16 25 -13 33 2 7 0 10
-5 7 -6 -3 -10 -2 -10 4 0 5 -35 44 -77 87 -43 43 -71 70 -63 59 14 -17 13
-18 -3 -12 -10 4 -20 7 -21 7 -1 0 -29 30 -62 67 -32 37 -53 64 -47 60 7 -5
22 -10 33 -12 14 -3 5 12 -32 49 -29 30 -98 99 -152 155 -60 61 -105 100 -113
96 -8 -2 -12 -1 -9 4 11 17 -188 204 -241 227 -18 8 -33 17 -33 20 0 3 6 2 13
-2 6 -3 -9 14 -35 38 -25 25 -65 66 -87 92 -22 25 -44 46 -48 46 -4 0 -8 5 -8
12 0 6 -6 13 -14 16 -9 3 -11 0 -6 -8 5 -9 4 -11 -4 -6 -9 6 -9 11 -1 21 9 11
6 16 -14 21 -19 4 -25 11 -21 23 4 13 -10 24 -52 46 -72 37 -245 153 -256 171
-4 8 -12 14 -17 14 -6 0 -19 9 -30 20 -12 12 -25 18 -30 15 -4 -3 -10 0 -12 5
-2 6 -14 12 -28 13 -14 0 -46 17 -71 37 -85 65 -102 75 -123 76 -11 1 -22 6
-24 12 -2 6 -10 8 -18 5 -20 -8 -186 95 -229 143 -21 23 -145 115 -145 108 0
-4 -6 -1 -12 7 -7 9 -37 33 -66 54 -44 31 -56 36 -64 24 -8 -11 -9 -10 -4 4 4
14 -2 21 -27 32 -17 7 -35 11 -39 9 -5 -3 -8 -1 -8 5 0 5 -10 13 -22 17 -23 7
-83 45 -179 114 -31 22 -61 40 -67 40 -6 0 -16 8 -22 18 -11 16 -11 16 -6 0 3
-10 2 -18 -3 -18 -5 0 -17 8 -28 18 -10 9 -13 13 -6 8 28 -18 19 0 -11 24 -17
13 -25 17 -18 8 10 -13 10 -17 -3 -22 -9 -3 -13 -11 -9 -17 3 -6 -5 -3 -20 6
-14 9 -23 21 -20 27 3 5 12 1 21 -9 13 -16 13 -16 3 5 -9 18 -14 21 -25 12
-11 -9 -24 -5 -59 19 -24 17 -48 31 -53 31 -4 0 -1 -5 7 -10 13 -8 13 -10 -2
-10 -9 0 -29 5 -43 10 -23 9 -26 8 -21 -5 6 -18 5 -18 -29 -5 -17 7 -24 7 -20
0 3 -6 -1 -10 -9 -10 -9 0 -16 -4 -16 -8 0 -11 -55 -29 -110 -37 -56 -8 -92
-31 -70 -45 8 -5 21 -10 28 -10 6 0 12 -4 12 -10 0 -11 -29 -2 -50 16 -12 10
-17 10 -27 -1 -10 -10 -7 -14 13 -19 13 -4 24 -11 24 -16 0 -5 -6 -7 -14 -4
-7 3 -20 -2 -29 -10 -9 -9 -25 -16 -37 -16 -12 0 -33 -9 -47 -20 -14 -11 -37
-20 -50 -20 -13 0 -22 -4 -18 -9 3 -5 1 -12 -4 -15 -5 -4 -12 -2 -16 3 -3 6
-12 8 -20 5 -8 -4 -12 -11 -9 -16 4 -6 -2 -7 -17 -3 -24 8 -269 232 -269 246
0 4 -14 16 -30 26 -17 10 -33 28 -36 40 -4 13 -11 23 -16 23 -5 0 -8 6 -5 13
2 6 -11 27 -29 45 -19 18 -34 37 -34 41 0 4 -9 16 -20 26 -11 10 -20 23 -20
29 0 24 -54 46 -125 50 -25 1 -49 10 -61 21 -27 26 -289 238 -423 343 -176
137 -321 237 -548 378 -118 74 -305 196 -414 272 -269 186 -350 232 -409 232
-27 0 -58 -8 -77 -20z m1974 -1256 c-3 -3 -12 -4 -19 -1 -8 3 -5 6 6 6 11 1
17 -2 13 -5z m-247 -234 c0 -5 -5 -10 -11 -10 -5 0 -7 5 -4 10 3 6 8 10 11 10
2 0 4 -4 4 -10z m894 -279 c4 -5 -3 -7 -14 -4 -23 6 -26 13 -6 13 8 0 17 -4
20 -9z m-625 -35 c9 -11 9 -16 -1 -22 -7 -4 -10 -4 -6 1 4 4 3 14 -3 22 -6 7
-9 13 -6 13 2 0 10 -6 16 -14z m202 -100 c5 3 8 0 7 -7 -2 -7 7 -18 19 -24 13
-7 20 -15 16 -18 -3 -4 1 -7 10 -7 9 0 19 -5 23 -12 4 -7 3 -8 -4 -4 -7 4 -12
1 -12 -8 0 -8 -7 -16 -17 -18 -13 -2 -11 -7 10 -28 29 -27 34 -49 15 -69 -11
-10 -9 -15 7 -28 17 -13 17 -15 2 -9 -10 3 -16 2 -12 -3 7 -12 -5 -41 -17 -41
-5 0 -6 5 -2 12 4 7 3 8 -4 4 -7 -4 -12 -14 -12 -22 0 -9 -6 -14 -12 -11 -15
4 -18 27 -7 42 4 6 -6 10 -26 10 -19 0 -31 -4 -27 -10 3 -5 -1 -4 -9 2 -11 9
-18 10 -27 1 -8 -8 -10 -6 -7 8 2 11 4 23 4 27 1 5 6 5 11 2 6 -3 10 -1 10 5
0 6 5 8 13 4 8 -5 8 -2 -2 9 -7 9 -11 17 -7 17 3 0 1 11 -4 25 -5 14 -12 37
-14 51 -3 15 -13 35 -22 46 -17 18 -17 19 2 12 10 -4 16 -4 12 0 -3 4 1 16 10
27 15 17 17 17 34 2 10 -8 15 -20 12 -25 -4 -6 -10 -5 -15 3 -5 8 -9 10 -9 4
0 -5 5 -17 11 -25 8 -12 12 -12 16 -2 4 10 8 10 19 1 23 -19 18 15 -6 36 -11
10 -17 22 -13 28 5 8 8 7 11 -1 2 -7 8 -10 13 -6z m-104 -253 c0 -7 -9 -13
-19 -13 -10 0 -18 6 -18 14 0 8 8 14 18 13 10 0 19 -7 19 -14z m83 -23 c-8 -5
-5 -9 9 -13 24 -6 28 -22 6 -31 -8 -3 -15 -1 -15 4 0 6 -4 10 -10 10 -5 0 -10
-10 -10 -22 0 -17 -3 -19 -12 -10 -9 9 -15 9 -25 0 -10 -8 -17 -8 -26 1 -9 10
-9 12 2 9 7 -2 16 3 19 11 2 8 0 11 -5 8 -5 -3 -10 1 -10 9 0 9 6 13 14 10 8
-3 11 -2 8 3 -3 5 -1 12 4 15 5 4 11 -4 13 -16 3 -22 4 -21 23 10 11 18 21 28
24 21 2 -6 -2 -15 -9 -19z m27 -110 c2 -22 1 -23 -21 -14 -13 5 -14 9 -5 20
16 19 24 17 26 -6z m650 -1062 c-3 -7 -5 -2 -5 12 0 14 2 19 5 13 2 -7 2 -19
0 -25z m3035 -268 c6 0 9 -3 6 -6 -9 -8 -48 14 -48 27 0 6 7 3 16 -5 8 -9 20
-16 26 -16z m28 -85 c14 -19 14 -19 -2 -6 -10 7 -18 18 -18 24 0 6 1 8 3 6 1
-2 9 -13 17 -24z m24 9 c5 -14 4 -15 -9 -4 -17 14 -19 20 -6 20 5 0 12 -7 15
-16z m35 -47 c8 -10 7 -14 -2 -14 -8 0 -14 6 -14 14 0 7 1 13 2 13 2 0 8 -6
14 -13z m121 -132 c13 -14 21 -27 18 -30 -5 -6 -15 3 -46 40 -21 25 3 17 28
-10z m-1956 -101 c9 -4 21 -15 27 -25 8 -15 6 -17 -8 -12 -22 8 -58 43 -44 43
5 0 17 -3 25 -6z m-1950 -70 c3 -8 2 -12 -4 -9 -6 3 -10 10 -10 16 0 14 7 11
14 -7z m1981 -12 c-3 -3 -11 0 -18 7 -9 10 -8 11 6 5 10 -3 15 -9 12 -12z m3
-40 c4 -24 32 -38 42 -21 6 8 9 8 14 0 4 -6 2 -11 -4 -11 -6 0 -9 -4 -5 -9 3
-6 -3 -15 -12 -20 -17 -10 -17 -12 0 -25 9 -7 17 -16 17 -20 0 -12 -39 -6 -53
9 -13 13 -16 12 -22 -2 -5 -15 -7 -15 -15 -3 -5 8 -5 19 0 26 6 6 6 14 2 18
-4 4 -1 6 7 4 7 -1 16 3 18 10 3 6 -1 12 -8 12 -18 0 -37 31 -32 51 7 24 47 9
51 -19z m25 13 c-3 -9 -8 -14 -10 -11 -3 3 -2 9 2 15 9 16 15 13 8 -4z m89
-174 c12 -2 -3 -29 -19 -35 -23 -9 -45 12 -30 29 6 7 19 11 27 10 8 -2 18 -4
22 -4z m-1986 -56 c1 -8 -1 -15 -4 -15 -11 0 -31 37 -25 44 9 8 26 -10 29 -29z
m2024 -6 c0 -5 -6 -9 -13 -9 -8 0 -14 6 -14 14 0 8 6 12 14 9 7 -3 13 -9 13
-14z m-100 -25 c0 -8 4 -13 9 -10 16 10 37 -4 38 -24 1 -11 -1 -20 -5 -21 -51
-6 -53 -5 -49 13 4 12 0 18 -12 18 -23 0 -22 36 1 37 10 1 18 -5 18 -13z m83
-68 c4 -10 1 -13 -8 -9 -8 3 -12 9 -9 14 7 12 11 11 17 -5z m-118 -166 c4 -6
11 -8 16 -4 5 3 8 0 7 -8 -2 -8 5 -12 19 -11 11 1 27 -5 35 -15 12 -15 11 -16
-4 -3 -11 8 -18 9 -18 3 0 -6 7 -15 17 -20 20 -12 26 -72 6 -72 -7 0 -13 -5
-13 -12 0 -6 3 -8 6 -5 4 3 15 2 24 -3 18 -9 18 -29 2 -70 -7 -20 -9 -110 -1
-110 3 0 4 -13 1 -30 -2 -16 -1 -38 3 -47 5 -10 7 -22 6 -27 -1 -4 2 -13 7
-20 14 -18 23 -48 12 -41 -6 3 -10 2 -10 -4 0 -5 5 -11 12 -13 7 -3 8 -9 3
-18 -5 -7 -9 -25 -11 -39 -1 -14 -5 -41 -9 -58 -4 -22 -2 -33 5 -33 6 0 9 3 7
8 -8 12 12 52 25 52 9 0 10 -3 2 -8 -6 -4 -14 -33 -18 -64 -4 -32 -12 -58 -16
-58 -6 0 -5 -12 0 -27 9 -25 9 -26 -4 -10 -13 17 -14 10 -13 -60 2 -58 -1 -80
-10 -80 -12 0 -17 11 -14 30 1 5 -3 6 -8 2 -6 -3 -8 -11 -5 -18 3 -8 -3 -13
-15 -13 -11 0 -17 4 -15 8 3 4 2 14 -3 21 -14 22 -24 135 -13 142 9 5 -7 133
-20 165 -14 35 -21 67 -27 125 -3 28 -8 55 -13 60 -10 13 -23 107 -24 177 -1
32 -4 58 -9 58 -9 0 1 62 13 74 6 6 15 4 25 -4 21 -18 32 -4 13 17 -23 27 -30
53 -12 46 8 -3 14 1 14 11 0 18 15 22 25 6z m120 -110 c3 -5 1 -10 -4 -10 -6
0 -11 5 -11 10 0 6 2 10 4 10 3 0 8 -4 11 -10z m2315 -130 c0 -5 -8 -10 -17
-10 -15 0 -16 2 -3 10 19 12 20 12 20 0z m-89 -118 c9 -17 20 -28 24 -24 5 4
6 0 3 -8 -3 -9 8 -36 24 -60 31 -46 45 -90 28 -90 -5 0 -13 12 -16 26 -4 14
-12 23 -18 21 -6 -3 -17 2 -24 10 -11 11 -9 13 13 9 14 -3 23 -1 20 5 -4 5
-11 6 -17 3 -7 -4 -8 -2 -4 4 4 8 2 10 -7 6 -8 -3 -18 0 -23 7 -5 9 -2 10 9 6
26 -10 20 9 -10 32 -16 11 -22 21 -15 21 19 0 14 21 -10 48 -15 16 -18 23 -8
20 8 -2 22 -18 31 -36z m104 -111 l20 -24 -22 14 c-13 8 -23 20 -23 28 0 8 1
12 3 10 1 -2 11 -15 22 -28z m-1043 -121 c4 0 8 -6 8 -13 0 -7 14 -21 30 -30
17 -10 30 -22 30 -28 0 -5 8 -17 18 -27 9 -10 23 -28 31 -40 8 -11 19 -18 24
-15 6 3 7 2 4 -4 -3 -5 13 -30 36 -54 23 -25 58 -65 77 -89 19 -24 43 -52 53
-62 9 -10 14 -18 10 -18 -4 0 0 -6 9 -12 8 -7 18 -22 22 -33 4 -11 4 -16 0
-13 -4 4 -16 1 -28 -7 -31 -22 -56 -19 -51 5 2 11 1 18 -4 16 -7 -5 -20 10
-87 97 -20 26 -41 47 -47 47 -5 0 2 -15 16 -32 61 -79 137 -206 131 -222 -9
-24 -19 -20 -45 19 -18 26 -29 33 -44 29 -16 -4 -17 -3 -5 5 13 10 8 15 -12
12 -4 0 -4 7 -1 17 3 9 3 14 -2 10 -4 -4 -19 15 -33 42 -16 31 -33 51 -48 54
-13 4 -31 20 -40 38 -14 28 -15 30 0 25 13 -5 14 -3 4 12 -6 10 -18 18 -26 17
-9 0 -24 17 -35 39 -11 22 -23 47 -28 55 -67 116 -72 129 -49 127 10 -1 18 -6
17 -12 -1 -5 3 -9 10 -8 7 2 10 -4 7 -12 -4 -9 3 -18 18 -24 13 -5 53 -45 88
-90 35 -44 66 -79 68 -76 2 2 -7 18 -22 35 -14 17 -26 38 -26 46 0 8 -4 14
-10 14 -5 0 -10 5 -10 11 0 6 -21 38 -47 72 -27 34 -48 64 -48 67 0 3 -10 16
-22 29 -41 44 -33 62 10 20 23 -21 45 -39 49 -39z m1192 39 c33 -35 41 -65 20
-73 -14 -5 -15 -4 -4 9 8 10 9 15 1 15 -6 0 -10 3 -9 8 5 13 -30 54 -36 43 -4
-5 -2 -12 4 -16 5 -3 10 -11 10 -18 0 -15 -21 6 -23 24 -2 8 -6 19 -10 26 -13
21 24 7 47 -18z m-142 2 c-11 -7 -11 -9 2 -14 9 -4 16 -11 16 -17 0 -6 -11 -3
-24 7 -23 17 -18 33 9 33 6 0 4 -4 -3 -9z m-931 -423 c11 -21 11 -22 -4 -9
-10 7 -17 17 -17 22 0 15 9 10 21 -13z m199 -88 c0 -5 -5 -10 -11 -10 -5 0 -7
5 -4 10 3 6 8 10 11 10 2 0 4 -4 4 -10z m-2991 -527 c-8 -9 -8 -13 0 -13 6 0
11 -5 11 -12 0 -9 -3 -9 -12 0 -17 17 -18 39 -2 39 10 0 11 -4 3 -14z m4881
-719 c0 -2 -7 -4 -15 -4 -8 0 -15 4 -15 10 0 5 7 7 15 4 8 -4 15 -8 15 -10z
m-260 -24 c0 -5 -2 -10 -4 -10 -3 0 -8 5 -11 10 -3 6 -1 10 4 10 6 0 11 -4 11
-10z m20 -24 c0 -2 -7 -6 -15 -10 -8 -3 -15 -1 -15 4 0 6 7 10 15 10 8 0 15
-2 15 -4z m-2174 -48 c3 -4 -1 -5 -10 -4 -8 1 -18 5 -22 8 -3 4 1 5 10 4 8 -1
18 -5 22 -8z m-10 -37 c-17 -19 -17 -19 6 -15 12 2 17 2 11 -2 -19 -8 -16 -24
5 -24 10 0 13 -3 7 -8 -16 -11 -12 -29 10 -47 19 -15 19 -16 1 -11 -15 5 -17
4 -8 -7 7 -8 9 -17 5 -21 -4 -4 1 -4 12 0 11 4 17 4 13 -1 -4 -4 -3 -14 4 -22
9 -11 7 -12 -8 -7 -14 4 -13 1 6 -15 15 -13 18 -19 8 -15 -15 5 -16 3 -5 -20
7 -14 15 -26 19 -26 4 0 5 -7 2 -15 -4 -8 -2 -15 4 -15 6 0 8 -10 4 -22 -3
-13 -1 -19 6 -15 6 4 9 0 7 -10 -1 -10 0 -22 4 -28 7 -12 12 -34 14 -57 1 -9
4 -15 8 -12 10 6 22 -53 14 -66 -3 -5 -1 -10 4 -10 6 0 11 -7 11 -16 0 -9 5
-12 13 -8 9 6 9 5 0 -7 -10 -13 -9 -26 8 -70 11 -30 22 -63 24 -74 5 -29 13
-60 15 -62 2 -2 4 -7 5 -13 1 -5 3 -11 5 -12 7 -10 6 -38 -2 -38 -6 0 -8 7 -4
15 3 8 1 15 -4 15 -6 0 -22 27 -36 60 -16 35 -32 57 -38 53 -6 -3 -6 0 1 7 9
10 9 19 -3 41 -8 16 -14 31 -13 35 1 3 -8 17 -20 30 -11 13 -16 24 -11 24 6 0
2 9 -9 21 -10 11 -18 28 -16 37 1 9 -2 23 -8 31 -6 7 -12 18 -13 25 -1 6 -11
45 -22 86 -11 41 -18 79 -15 84 4 5 -1 7 -11 3 -14 -6 -15 -3 -6 13 8 15 6 34
-5 75 -9 30 -14 59 -11 64 4 5 2 12 -4 16 -14 9 -13 48 2 63 20 20 32 13 14
-7z m803 -74 c8 -20 7 -25 -4 -23 -8 1 -18 6 -22 11 -4 4 -2 5 5 1 6 -4 12 -3
12 3 0 5 -4 11 -8 13 -5 2 -12 17 -16 33 -7 29 -7 29 8 8 9 -11 20 -32 25 -46z
m4 -83 c-7 -19 -10 -18 -16 5 -3 13 -1 18 9 14 7 -2 10 -11 7 -19z m-686 -449
c0 -8 -4 -12 -9 -9 -5 3 -6 10 -3 15 9 13 12 11 12 -6z m30 -120 c0 -8 -4 -12
-9 -9 -5 3 -6 10 -3 15 9 13 12 11 12 -6z m108 -105 c3 -5 1 -10 -4 -10 -6 0
-11 5 -11 10 0 6 2 10 4 10 3 0 8 -4 11 -10z m10 -30 c3 -5 1 -10 -4 -10 -6 0
-11 5 -11 10 0 6 2 10 4 10 3 0 8 -4 11 -10z m-8 -236 c12 -19 19 -34 15 -34
-9 0 -62 84 -61 96 0 5 6 1 12 -10 7 -10 22 -34 34 -52z m44 -71 c23 -46 22
-49 -5 -18 -26 31 -32 45 -18 45 5 0 15 -12 23 -27z m2349 -13 c0 -5 -5 -10
-11 -10 -5 0 -7 5 -4 10 3 6 8 10 11 10 2 0 4 -4 4 -10z m-2240 -315 c7 -9 8
-15 2 -15 -5 0 -12 7 -16 15 -3 8 -4 15 -2 15 2 0 9 -7 16 -15z m59 -105 c11
-24 11 -24 -3 -6 -9 11 -16 24 -16 30 0 12 5 7 19 -24z m-960 -4 c13 -14 18
-26 13 -30 -6 -3 -17 7 -25 24 -19 36 -17 37 12 6z m231 -107 c0 -6 -4 -7 -10
-4 -5 3 -10 11 -10 16 0 6 5 7 10 4 6 -3 10 -11 10 -16z m750 -4 c14 -19 14
-19 -2 -6 -10 7 -18 18 -18 24 0 6 1 8 3 6 1 -2 9 -13 17 -24z m25 -35 c3 -6
-1 -7 -9 -4 -18 7 -21 14 -7 14 6 0 13 -4 16 -10z m15 -30 c0 -5 -2 -10 -4
-10 -3 0 -8 5 -11 10 -3 6 -1 10 4 10 6 0 11 -4 11 -10z m-13 -47 c4 -10 11
-21 17 -25 7 -5 7 -8 -2 -8 -7 0 -16 8 -19 18 -4 9 -11 20 -17 24 -7 5 -7 8 2
8 7 0 16 -8 19 -17z m14 -81 c18 -26 39 -51 46 -55 7 -4 13 -14 13 -22 0 -7 4
-15 8 -17 13 -5 92 -120 92 -135 0 -7 5 -13 11 -13 6 0 9 -7 5 -15 -3 -8 -2
-15 2 -15 7 0 46 -74 48 -92 1 -4 2 -12 3 -17 0 -5 8 -17 17 -25 8 -9 11 -16
5 -16 -5 0 -13 5 -16 10 -5 8 -12 7 -23 -2 -12 -10 -14 -10 -8 0 4 6 3 12 -2
12 -12 0 -112 100 -112 111 0 5 -4 9 -8 9 -9 0 -132 181 -129 190 1 3 -8 20
-21 38 -13 17 -21 32 -18 32 3 0 -3 16 -14 35 -11 19 -16 35 -12 35 5 0 15
-11 22 -25 9 -16 19 -24 28 -20 11 4 12 2 5 -7 -6 -9 -2 -20 14 -35 27 -26 27
-26 8 21 -9 20 -13 42 -9 48 4 7 3 8 -4 4 -7 -4 -12 -1 -12 8 0 25 25 8 61
-42z m29 23 c7 -8 9 -15 6 -15 -4 0 -14 7 -22 15 -9 8 -11 15 -6 15 5 0 15 -7
22 -15z m24 -41 c10 -25 -1 -29 -14 -5 -6 12 -7 21 -1 21 5 0 12 -7 15 -16z
m158 -423 c7 11 8 9 4 -4 -4 -13 11 -41 49 -90 57 -73 67 -94 38 -78 -25 13
-53 45 -108 126 -42 61 -45 67 -20 51 23 -15 29 -16 37 -5z m-77 -321 c3 -5 1
-10 -4 -10 -6 0 -11 5 -11 10 0 6 2 10 4 10 3 0 8 -4 11 -10z m40 -30 c10 -11
16 -20 13 -20 -3 0 -13 9 -23 20 -10 11 -16 20 -13 20 3 0 13 -9 23 -20z m122
-71 c-1 -4 7 -15 18 -23 11 -8 16 -15 10 -15 -5 0 -22 10 -37 22 -24 20 -25
23 -9 23 11 0 19 -4 18 -7z m68 -37 c-3 -3 -11 0 -18 7 -9 10 -8 11 6 5 10 -3
15 -9 12 -12z m1715 -1435 c0 -9 -36 9 -44 22 -4 5 5 4 19 -2 14 -7 25 -16 25
-20z m80 -13 c0 -2 -9 0 -20 6 -11 6 -20 13 -20 16 0 2 9 0 20 -6 11 -6 20
-13 20 -16z"/>
<path d="M7170 8581 c0 -6 5 -13 10 -16 6 -3 10 1 10 9 0 9 -4 16 -10 16 -5 0
-10 -4 -10 -9z"/>
<path d="M7208 8253 c7 -3 16 -2 19 1 4 3 -2 6 -13 5 -11 0 -14 -3 -6 -6z"/>
<path d="M4729 11857 c7 -9 20 -17 28 -17 8 0 12 -4 9 -8 -2 -4 5 -9 16 -9 19
-2 20 0 6 13 -8 9 -21 16 -29 17 -8 2 -21 7 -29 12 -13 8 -13 7 -1 -8z"/>
<path d="M6576 11746 c10 -8 21 -12 24 -10 5 6 -21 24 -34 24 -6 0 -1 -6 10
-14z"/>
<path d="M6610 11731 c0 -5 5 -13 10 -16 6 -3 10 -2 10 4 0 5 -4 13 -10 16 -5
3 -10 2 -10 -4z"/>
<path d="M6732 11654 c10 -10 20 -15 24 -12 3 4 -5 12 -18 18 -22 12 -22 12
-6 -6z"/>
<path d="M4840 11651 c0 -6 5 -13 10 -16 6 -3 10 1 10 9 0 9 -4 16 -10 16 -5
0 -10 -4 -10 -9z"/>
<path d="M6770 11630 c0 -5 5 -10 11 -10 6 0 30 -13 54 -30 53 -37 72 -40 24
-4 -48 36 -89 56 -89 44z"/>
<path d="M6965 11523 c6 -5 28 -22 50 -38 33 -24 36 -25 20 -6 -11 13 -33 30
-50 38 -16 8 -25 11 -20 6z"/>
<path d="M4834 10754 c1 -15 10 -30 21 -36 19 -9 19 -9 2 5 -14 11 -15 16 -5
20 11 4 11 6 0 6 -7 1 -11 5 -7 10 3 5 1 12 -3 15 -5 3 -8 -6 -8 -20z"/>
<path d="M5175 9150 c3 -5 8 -10 11 -10 2 0 4 5 4 10 0 6 -5 10 -11 10 -5 0
-7 -4 -4 -10z"/>
<path d="M5205 9151 c-3 -5 -2 -12 3 -15 5 -3 9 1 9 9 0 17 -3 19 -12 6z"/>
<path d="M9775 8300 c3 -5 11 -10 16 -10 6 0 7 5 4 10 -3 6 -11 10 -16 10 -6
0 -7 -4 -4 -10z"/>
<path d="M9807 8239 c7 -7 15 -10 18 -7 3 3 -2 9 -12 12 -14 6 -15 5 -6 -5z"/>
<path d="M5794 7406 c1 -8 5 -18 8 -22 4 -3 5 1 4 10 -1 8 -5 18 -8 22 -4 3
-5 -1 -4 -10z"/>
<path d="M10552 6580 c14 -22 24 -19 15 5 -4 8 -11 15 -17 15 -6 0 -6 -7 2
-20z"/>
<path d="M10515 6490 c3 -5 8 -10 11 -10 2 0 4 5 4 10 0 6 -5 10 -11 10 -5 0
-7 -4 -4 -10z"/>
<path d="M10506 6454 c-9 -24 -2 -26 12 -4 7 11 8 20 3 20 -5 0 -12 -7 -15
-16z"/>
<path d="M10540 6406 c0 -2 9 -6 20 -9 11 -3 18 -1 14 4 -5 9 -34 13 -34 5z"/>
<path d="M10580 6346 c0 -2 7 -7 16 -10 8 -3 12 -2 9 4 -6 10 -25 14 -25 6z"/>
<path d="M6456 6305 c4 -8 10 -15 16 -15 5 0 6 -5 2 -12 -5 -7 -3 -8 5 -4 9 6
8 13 -5 27 -21 23 -25 24 -18 4z"/>
<path d="M10580 6284 c0 -13 18 -39 24 -34 2 3 -2 14 -10 24 -8 11 -14 16 -14
10z"/>
<path d="M10627 6185 c2 -8 11 -11 19 -8 16 6 11 16 -11 19 -8 1 -11 -4 -8
-11z"/>
<path d="M6554 6175 c8 -8 18 -15 22 -15 3 0 1 7 -6 15 -7 8 -17 15 -22 15 -5
0 -3 -7 6 -15z"/>
<path d="M10654 6133 c10 -11 36 -12 36 -2 0 5 -10 9 -22 9 -12 0 -18 -3 -14
-7z"/>
<path d="M10665 6110 c-3 -5 -1 -10 4 -10 6 0 11 5 11 10 0 6 -2 10 -4 10 -3
0 -8 -4 -11 -10z"/>
<path d="M10680 6081 c0 -6 4 -13 10 -16 6 -3 7 1 4 9 -7 18 -14 21 -14 7z"/>
<path d="M10640 6031 c0 -6 4 -13 10 -16 6 -3 7 1 4 9 -7 18 -14 21 -14 7z"/>
<path d="M10655 5990 c3 -5 8 -10 11 -10 2 0 4 5 4 10 0 6 -5 10 -11 10 -5 0
-7 -4 -4 -10z"/>
<path d="M7842 4794 c10 -10 20 -15 24 -12 3 4 -5 12 -18 18 -22 12 -22 12 -6
-6z"/>
<path d="M9682 3196 c7 -8 15 -12 17 -11 5 6 -10 25 -20 25 -5 0 -4 -6 3 -14z"/>
<path d="M10050 2926 c0 -2 8 -10 18 -17 15 -13 16 -12 3 4 -13 16 -21 21 -21
13z"/>
<path d="M10125 2860 c10 -11 20 -20 23 -20 3 0 -3 9 -13 20 -10 11 -20 20
-23 20 -3 0 3 -9 13 -20z"/>
<path d="M10365 2630 c3 -5 11 -10 16 -10 6 0 7 5 4 10 -3 6 -11 10 -16 10 -6
0 -7 -4 -4 -10z"/>
<path d="M10390 2602 c0 -5 11 -14 25 -20 32 -15 35 -15 35 -2 0 6 -3 9 -7 8
-5 -1 -18 3 -30 10 -13 7 -23 9 -23 4z"/>
</g>
</svg>
