<?xml version="1.0" encoding="UTF-8"?>
<!DOCTYPE svg PUBLIC "-//W3C//DTD SVG 1.1//EN" "http://www.w3.org/Graphics/SVG/1.1/DTD/svg11.dtd">
<svg xmlns="http://www.w3.org/2000/svg" version="1.1" width="1352px" height="206px" style="shape-rendering:geometricPrecision; text-rendering:geometricPrecision; image-rendering:optimizeQuality; fill-rule:evenodd; clip-rule:evenodd" xmlns:xlink="http://www.w3.org/1999/xlink">
<g><path style="opacity:0.765" fill="#000000" d="M 208.5,-0.5 C 223.167,-0.5 237.833,-0.5 252.5,-0.5C 346.682,8.82984 431.349,41.9965 506.5,99C 515.69,107.101 524.69,115.434 533.5,124C 555.919,141.148 581.252,151.481 609.5,155C 653.966,161.312 695.633,153.312 734.5,131C 743.941,124.558 752.441,117.058 760,108.5C 767.333,95.8333 774.667,83.1667 782,70.5C 799.047,49.8843 820.214,35.0509 845.5,26C 895.905,9.14851 947.238,5.81517 999.5,16C 1052.46,25.5558 1096.96,50.0558 1133,89.5C 1149.85,111.863 1167.18,133.863 1185,155.5C 1217.18,186.573 1255.85,201.906 1301,201.5C 1317.39,201.18 1333.56,199.18 1349.5,195.5C 1350.18,196.243 1350.85,196.909 1351.5,197.5C 1351.5,198.167 1351.5,198.833 1351.5,199.5C 1335.83,202.583 1320.16,204.583 1304.5,205.5C 1302.17,205.5 1299.83,205.5 1297.5,205.5C 1263.5,204.997 1232.17,195.497 1203.5,177C 1193.06,168.567 1183.23,159.401 1174,149.5C 1159.58,130.319 1144.91,111.319 1130,92.5C 1097.06,56.2703 1056.56,32.7703 1008.5,22C 958.899,10.1492 909.565,11.1492 860.5,25C 832.1,33.1082 807.934,47.9415 788,69.5C 779.082,83.6671 770.415,98.0005 762,112.5C 742.699,133.082 719.199,146.915 691.5,154C 647.293,164.919 603.96,162.252 561.5,146C 553.847,142.508 546.513,138.508 539.5,134C 491.836,88.313 436.836,53.9797 374.5,31C 341.647,19.3701 307.98,11.0367 273.5,6C 222.768,-1.62815 173.768,4.37185 126.5,24C 80.7114,45.4552 45.5447,78.2886 21,122.5C 14.3455,134.808 8.51219,147.474 3.5,160.5C 2.19165,161.626 0.858316,161.626 -0.5,160.5C -0.5,159.833 -0.5,159.167 -0.5,158.5C 37.161,63.5139 106.828,10.5139 208.5,-0.5 Z"/></g>
</svg>
